# xmcd
#
# Track frame offsets: 
#        150
#        21455
#        44200
#        62380
#        77320
#        99692
#        116412
#        132812
#        147485
#        163742
#        178000
#        194520
#        211115
#
# Disc length: 3081 seconds
#
# Revision: 0
# Processed by: cddbd v1.5.2PL0 Copyright (c) Steve Scherf et al.
# Submitted via: ExactAudioCopy v0.95b4
#
DISCID=b80c070d
DTITLE=Thomas "Big Hat " Fields - Come To Louisiana
DYEAR=1900
DGENRE=Zydeco
TTITLE0=Come To Louisiana
TTITLE1=The Mess Around
TTITLE2=Make Love In The Barn
TTITLE3=Rock The House
TTITLE4=Rockin' Chair Mama
TTITLE5=Ting A Ling
TTITLE6=Mom et Pop
TTITLE7=You Make Me Cry
TTITLE8='Tit Fille
TTITLE9=Going To Prison
TTITLE10=All Day Long
TTITLE11=Olivia's Waltz
TTITLE12=Little Girl
EXTD=
EXTT0=
EXTT1=
EXTT2=
EXTT3=
EXTT4=
EXTT5=
EXTT6=
EXTT7=
EXTT8=
EXTT9=
EXTT10=
EXTT11=
EXTT12=
PLAYORDER=
